<svg id="Ebene_1" data-name="Ebene 1" xmlns="http://www.w3.org/2000/svg" viewBox="0 0 92.25 127.56"><title>sina_goettmann_signet_color DE_EN</title><path d="M106.42,60.3A46.13,46.13,0,1,0,30.83,95.78V62h0c0-.38,0-.76,0-1.14a29.44,29.44,0,1,1,19.5,27.73L31.5,96.32a46.16,46.16,0,0,0,44.4,7.39l30.52,38V62.1h0C106.4,61.5,106.42,60.9,106.42,60.3Z" transform="translate(-14.17 -14.17)" fill="#bcd233"/><path d="M35.83,56.9H39a4.26,4.26,0,1,1,0,8.51H35.83ZM39,64.1a2.8,2.8,0,0,0,2.92-2.94A2.76,2.76,0,0,0,39,58.21H37.32V64.1Z" transform="translate(-14.17 -14.17)" fill="#bcd233"/><path d="M44.88,56.9h5.83v1.31H46.37v2.21h4.25v1.32H46.37V64.1h4.34v1.31H44.88Z" transform="translate(-14.17 -14.17)" fill="#bcd233"/><path d="M57.57,57.37a.54.54,0,0,1,.42-.18.56.56,0,0,1,.42.18l.55.57a.57.57,0,0,1,.17.42.48.48,0,0,1-.17.4l-2.39,2.42L59,63.57a.55.55,0,0,1,.17.42.54.54,0,0,1-.17.42l-.55.58a.59.59,0,0,1-.42.17.57.57,0,0,1-.42-.17L54.18,61.6a.58.58,0,0,1-.18-.42.58.58,0,0,1,.18-.43ZM63,65a.61.61,0,0,1-.43.17.61.61,0,0,1-.42-.17l-.55-.58A.57.57,0,0,1,61.4,64a.59.59,0,0,1,.17-.42L64,61.18l-2.39-2.39a.61.61,0,0,1-.17-.43.61.61,0,0,1,.17-.42l.55-.57a.58.58,0,0,1,.42-.18.58.58,0,0,1,.43.18l3.38,3.38a.58.58,0,0,1,.18.43.58.58,0,0,1-.18.42Z" transform="translate(-14.17 -14.17)" fill="#bcd233"/><path d="M70.05,56.9h5.83v1.31H71.54v2.21h4.25v1.32H71.54V64.1h4.34v1.31H70.05Z" transform="translate(-14.17 -14.17)" fill="#bcd233"/><path d="M78.89,59.21v6.2H77.4V56.9h1.53l4.35,6v-6h1.5v8.51H83.33Z" transform="translate(-14.17 -14.17)" fill="#bcd233"/></svg>