<?xml version="1.0" encoding="utf-8"?>
<!-- Generator: Adobe Illustrator 22.0.1, SVG Export Plug-In . SVG Version: 6.00 Build 0)  -->
<svg version="1.1" id="Ebene_1" xmlns="http://www.w3.org/2000/svg" xmlns:xlink="http://www.w3.org/1999/xlink" x="0px" y="0px"
	 viewBox="0 0 121.89 155.906" enable-background="new 0 0 121.89 155.906" xml:space="preserve">
<path fill="#AFCA0B" d="M106.424,60.298c0-25.474-20.651-46.125-46.125-46.125S14.173,34.824,14.173,60.298
	c0,14.27,6.483,27.024,16.661,35.485V62.035h0.029c-0.015-0.382-0.029-0.764-0.029-1.149c0-16.272,13.191-29.464,29.464-29.464
	c16.272,0,29.464,13.191,29.464,29.464c0,16.272-13.191,29.464-29.464,29.464c-3.499,0-6.854-0.613-9.967-1.733L31.505,96.32
	c7.892,6.317,17.898,10.103,28.793,10.103c5.477,0,10.729-0.96,15.604-2.712l30.522,38.021V62.098h-0.045
	C106.401,61.5,106.424,60.902,106.424,60.298z"/>
<g>
</g>
<g>
</g>
<g>
</g>
<g>
</g>
<g>
</g>
<g>
</g>
</svg>
