<svg id="Ebene_1" data-name="Ebene 1" xmlns="http://www.w3.org/2000/svg" viewBox="0 0 197.58 127.56"><defs><style>.cls-1{fill:#fff;}</style></defs><title>Signet_Sina_Goettmann_white_x2</title><path class="cls-1" d="M92.25,46.13A46.13,46.13,0,1,0,16.66,81.61V47.86h0c0-.38,0-.76,0-1.15a29.48,29.48,0,1,1,19.5,27.73L17.33,82.15a46.16,46.16,0,0,0,44.4,7.39l30.52,38V47.92h0C92.23,47.33,92.25,46.73,92.25,46.13Z"/><path class="cls-1" d="M197.58,46.13A46.13,46.13,0,1,0,122,81.61V47.86h0c0-.38,0-.76,0-1.15a29.48,29.48,0,1,1,19.5,27.73l-18.82,7.71a46.14,46.14,0,0,0,44.39,7.39l30.52,38V47.92h0C197.56,47.33,197.58,46.73,197.58,46.13Z"/></svg>