<svg id="Ebene_1" data-name="Ebene 1" xmlns="http://www.w3.org/2000/svg" viewBox="0 0 92.25 127.56"><title>sina_goettmann_signet_color GER_EN</title><path d="M60.74,57.7a.53.53,0,0,1,.76,0l.49.51a.51.51,0,0,1,.16.38A.44.44,0,0,1,62,59l-2.15,2.18L62,63.28a.49.49,0,0,1,.16.38A.51.51,0,0,1,62,64l-.49.51a.53.53,0,0,1-.76,0l-3.05-3a.54.54,0,0,1,0-.77Zm4.86,6.85a.53.53,0,0,1-.76,0L64.35,64a.51.51,0,0,1-.16-.38.49.49,0,0,1,.16-.38l2.15-2.15L64.35,59a.49.49,0,0,1-.16-.38.51.51,0,0,1,.16-.38l.49-.51a.53.53,0,0,1,.76,0l3.05,3a.54.54,0,0,1,0,.77Z" transform="translate(-14.17 -14.17)" fill="#bcd233"/><path d="M71.12,57.28h5.25v1.18H72.46v2h3.83v1.19H72.46v2.12h3.91v1.18H71.12Z" transform="translate(-14.17 -14.17)" fill="#bcd233"/><path d="M79.09,59.35v5.58H77.74V57.28h1.38L83,62.71V57.28h1.34v7.65h-1.3Z" transform="translate(-14.17 -14.17)" fill="#bcd233"/><path d="M39.73,57.12a3.6,3.6,0,0,1,3.09,1.6l-1.1.62a2.44,2.44,0,0,0-2-1,2.77,2.77,0,0,0,0,5.54,2.8,2.8,0,0,0,1.81-.69V62H39.26V60.79h3.63v2.87a4.16,4.16,0,0,1-3.16,1.39,4,4,0,1,1,0-7.93Z" transform="translate(-14.17 -14.17)" fill="#bcd233"/><path d="M43.6,57.25h5.24v1.18h-3.9v2h3.82V61.6H44.94v2.12h3.9V64.9H43.6Z" transform="translate(-14.17 -14.17)" fill="#bcd233"/><path d="M52.2,62.05H50.87V64.9H49.53V57.25h3.36a2.32,2.32,0,0,1,2.5,2.4,2.15,2.15,0,0,1-1.81,2.25l1.87,3H53.9Zm.51-3.62H50.87v2.43h1.84a1.22,1.22,0,1,0,0-2.43Z" transform="translate(-14.17 -14.17)" fill="#bcd233"/><path d="M106.42,60.3A46.13,46.13,0,1,0,30.83,95.78V62h0c0-.38,0-.76,0-1.14a29.44,29.44,0,1,1,19.5,27.73L31.5,96.32a46.16,46.16,0,0,0,44.4,7.39l30.52,38V62.1h0C106.4,61.5,106.42,60.9,106.42,60.3Z" transform="translate(-14.17 -14.17)" fill="#bcd233"/></svg>