<svg id="Ebene_1" data-name="Ebene 1" xmlns="http://www.w3.org/2000/svg" viewBox="0 0 320.61 127.56"><defs><style>.cls-1{fill:#7a7f83;}.cls-2{fill:#bdd333;}</style></defs><polygon class="cls-1" points="181.81 42.69 175.6 27.36 171.03 27.36 171.03 33.01 174.23 40.82 174.23 31.75 181.14 48.71 182.48 48.71 189.4 31.75 189.4 48.71 192.6 48.71 192.6 27.36 188.02 27.36 181.81 42.69"/><polygon class="cls-1" points="235.38 36.32 223.57 36.32 223.57 27.36 220.37 27.36 220.37 48.71 223.57 48.71 223.57 39.17 235.38 39.17 235.38 48.71 238.58 48.71 238.58 27.36 235.38 27.36 235.38 36.32"/><path class="cls-1" d="M220.51,41.19c-6.37,0-10.75,4.7-10.75,11s4.38,11,10.75,11,10.75-4.7,10.75-11S226.87,41.19,220.51,41.19Zm0,19.23c-4.58,0-7.46-3.52-7.46-8.2S215.93,44,220.51,44,228,47.52,228,52.22,225,60.42,220.51,60.42Z" transform="translate(-14.02 -14.17)"/><path class="cls-1" d="M309.73,41.54h-9V62.88h3.2V54.66h5.79a6.39,6.39,0,0,0,6.82-6.56C316.55,44.55,314.12,41.54,309.73,41.54Zm-.41,10.3h-5.38V44.35h5.38a3.75,3.75,0,1,1,0,7.49Z" transform="translate(-14.02 -14.17)"/><path class="cls-1" d="M264.12,41.54l-8.48,21.34h3.52l1.73-4.42h10.47l1.72,4.42h3.52l-8.48-21.34Zm-2.3,14.08,4.29-11.3,4.32,11.3Z" transform="translate(-14.02 -14.17)"/><polygon class="cls-1" points="304.2 27.36 304.2 30.18 310.82 30.18 310.82 48.71 314.02 48.71 314.02 30.18 320.61 30.18 320.61 27.36 304.2 27.36"/><path class="cls-1" d="M292.78,54.43c0,3.65-2,6-5.73,6s-5.76-2.34-5.76-6V41.54h-3.23v13c0,5.25,3,8.73,9,8.73s9-3.45,9-8.76v-13h-3.23Z" transform="translate(-14.02 -14.17)"/><path class="cls-2" d="M121.55,58.53a8.69,8.69,0,0,0,6.65,3.1c4.37,0,5.62-2.43,5.62-4.25,0-3-2.84-3.83-5.85-4.63-3.35-.93-6.93-1.89-6.93-5.81,0-3.49,3.13-5.69,7-5.69a9.15,9.15,0,0,1,7.21,3L134,45.59a7.62,7.62,0,0,0-6.1-2.68c-2.84,0-5,1.63-5,3.93,0,2.52,2.65,3.26,5.56,4,3.44,1,7.21,2.08,7.21,6.39,0,2.75-1.82,6-7.57,6a9.8,9.8,0,0,1-7.79-3.39Z" transform="translate(-14.02 -14.17)"/><path class="cls-2" d="M140.11,41.6h1.82V62.9h-1.82Z" transform="translate(-14.02 -14.17)"/><path class="cls-2" d="M149.05,44.51V62.9h-1.82V41.6h1.85l13.35,18.14V41.6h1.82V62.9h-1.79Z" transform="translate(-14.02 -14.17)"/><path class="cls-2" d="M182.9,57.67H171.57l-2.14,5.23h-2.05l8.72-21.3h2.27l8.72,21.3H185ZM172.14,56h10.19l-5.11-12.62Z" transform="translate(-14.02 -14.17)"/><path class="cls-1" d="M127.69,85l-4.94-5.63-1.33,1.45V85h-1V73h1v6.55L127.2,73h1.31l-5.1,5.71L129,85Z" transform="translate(-14.02 -14.17)"/><path class="cls-1" d="M130.38,80.65c0-2.53,1.64-4.55,4.17-4.55s4.19,2,4.19,4.55-1.62,4.56-4.19,4.56S130.38,83.18,130.38,80.65Zm7.35,0c0-1.92-1.13-3.7-3.18-3.7s-3.16,1.78-3.16,3.7,1.15,3.72,3.16,3.72S137.73,82.59,137.73,80.65Z" transform="translate(-14.02 -14.17)"/><path class="cls-1" d="M147,85V79.12c0-1.67-.84-2.17-2.1-2.17a3.71,3.71,0,0,0-2.82,1.49V85h-.94V76.32h.94v1.31a4.42,4.42,0,0,1,3.12-1.53c1.76,0,2.73.87,2.73,2.82V85Z" transform="translate(-14.02 -14.17)"/><path class="cls-1" d="M152.09,77.15V85h-.94V77.15h-1.44v-.83h1.44v-.79c0-1.71.92-2.69,2.35-2.69a2.25,2.25,0,0,1,1.17.27l-.29.73a1.54,1.54,0,0,0-.79-.2c-1,0-1.5.69-1.5,1.89v.79h1.76v.83Z" transform="translate(-14.02 -14.17)"/><path class="cls-1" d="M159.29,76.1c2.64,0,4.09,2.11,4.09,4.6V81h-7.25a3.37,3.37,0,0,0,3.39,3.45,3.81,3.81,0,0,0,2.84-1.2l.48.61a4.45,4.45,0,0,1-3.39,1.4,4.57,4.57,0,0,1-.16-9.11Zm-3.16,4.12h6.3a3.18,3.18,0,0,0-3.16-3.31A3.26,3.26,0,0,0,156.13,80.22Z" transform="translate(-14.02 -14.17)"/><path class="cls-1" d="M165.79,85V76.32h.94v1.49a3.71,3.71,0,0,1,2.92-1.67v1a2.27,2.27,0,0,0-.46,0,3.3,3.3,0,0,0-2.46,1.54V85Z" transform="translate(-14.02 -14.17)"/><path class="cls-1" d="M175.17,76.1c2.64,0,4.09,2.11,4.09,4.6V81H172a3.38,3.38,0,0,0,3.39,3.45,3.81,3.81,0,0,0,2.84-1.2l.49.61a4.49,4.49,0,0,1-3.4,1.4,4.57,4.57,0,0,1-.16-9.11ZM172,80.22h6.3a3.18,3.18,0,0,0-3.16-3.31A3.26,3.26,0,0,0,172,80.22Z" transform="translate(-14.02 -14.17)"/><path class="cls-1" d="M187.53,85V79.12c0-1.67-.85-2.17-2.1-2.17a3.69,3.69,0,0,0-2.82,1.49V85h-.94V76.32h.94v1.31a4.42,4.42,0,0,1,3.12-1.53c1.76,0,2.73.87,2.73,2.82V85Z" transform="translate(-14.02 -14.17)"/><path class="cls-1" d="M190.93,85v-.77l5.13-7.07h-5.13v-.83h6.34v.75l-5.2,7.1h5.27V85Z" transform="translate(-14.02 -14.17)"/><path class="cls-1" d="M206.19,85V83.61a3.68,3.68,0,0,1-3,1.6c-2.3,0-3.88-1.76-3.88-4.54s1.58-4.57,3.88-4.57a3.68,3.68,0,0,1,3,1.62V73h.95V85Zm0-6.46A3.46,3.46,0,0,0,203.34,77c-1.92,0-3,1.61-3,3.72s1.12,3.7,3,3.7a3.46,3.46,0,0,0,2.85-1.55Z" transform="translate(-14.02 -14.17)"/><path class="cls-1" d="M209.56,80.65c0-2.53,1.63-4.55,4.16-4.55s4.19,2,4.19,4.55-1.62,4.56-4.19,4.56S209.56,83.18,209.56,80.65Zm7.34,0c0-1.92-1.13-3.7-3.18-3.7s-3.16,1.78-3.16,3.7,1.15,3.72,3.16,3.72S216.9,82.59,216.9,80.65Z" transform="translate(-14.02 -14.17)"/><path class="cls-1" d="M220.32,85V73h.93V85Z" transform="translate(-14.02 -14.17)"/><path class="cls-1" d="M234.49,85V78.92c0-1.22-.52-2-1.75-2a3.2,3.2,0,0,0-2.47,1.47V85h-1V78.92c0-1.22-.5-2-1.74-2a3.34,3.34,0,0,0-2.48,1.49V85h-.93V76.32h.93v1.31a3.82,3.82,0,0,1,2.81-1.53,2.2,2.2,0,0,1,2.28,1.64,3.59,3.59,0,0,1,2.87-1.64c1.6,0,2.37.9,2.37,2.64V85Z" transform="translate(-14.02 -14.17)"/><path class="cls-1" d="M242,76.1c2.63,0,4.09,2.11,4.09,4.6V81h-7.26a3.38,3.38,0,0,0,3.4,3.45,3.83,3.83,0,0,0,2.84-1.2l.48.61a4.46,4.46,0,0,1-3.39,1.4A4.57,4.57,0,0,1,242,76.1Zm-3.17,4.12h6.31A3.18,3.18,0,0,0,242,76.91,3.28,3.28,0,0,0,238.85,80.22Z" transform="translate(-14.02 -14.17)"/><path class="cls-1" d="M248.7,83.32V77.15h-1.44v-.83h1.44V74h1v2.37h1.76v.83h-1.76v6c0,.7.29,1.19.9,1.19a1.35,1.35,0,0,0,1-.42l.36.72a2,2,0,0,1-1.47.54C249.26,85.21,248.7,84.51,248.7,83.32Z" transform="translate(-14.02 -14.17)"/><path class="cls-1" d="M253.26,83.15a3.61,3.61,0,0,0,2.8,1.27c1.46,0,2.32-.72,2.32-1.72s-1.18-1.44-2.42-1.76c-1.46-.36-3.06-.74-3.06-2.43,0-1.33,1.13-2.41,3.09-2.41a4,4,0,0,1,3.11,1.28l-.52.66A3.16,3.16,0,0,0,256,76.9c-1.34,0-2.17.66-2.17,1.56s1.11,1.25,2.32,1.56c1.49.38,3.16.79,3.16,2.64,0,1.4-1.08,2.55-3.25,2.55a4.2,4.2,0,0,1-3.34-1.36Z" transform="translate(-14.02 -14.17)"/><path class="cls-1" d="M265.42,76.1a3.58,3.58,0,0,1,3.07,1.48l-.64.57a2.75,2.75,0,0,0-2.37-1.2c-2,0-3.27,1.61-3.27,3.7s1.24,3.72,3.27,3.72a2.77,2.77,0,0,0,2.37-1.22l.64.57a3.54,3.54,0,0,1-3.07,1.49,4.57,4.57,0,0,1,0-9.11Z" transform="translate(-14.02 -14.17)"/><path class="cls-1" d="M276.44,85v-5.9c0-1.67-.85-2.14-2.11-2.14a3.73,3.73,0,0,0-2.82,1.49V85h-.93V73h.93v4.61a4.42,4.42,0,0,1,3.13-1.53c1.76,0,2.73.83,2.73,2.79V85Z" transform="translate(-14.02 -14.17)"/><path class="cls-1" d="M284,76.1c2.64,0,4.1,2.11,4.1,4.6V81H280.8a3.38,3.38,0,0,0,3.4,3.45A3.79,3.79,0,0,0,287,83.2l.49.61a4.47,4.47,0,0,1-3.4,1.4A4.57,4.57,0,0,1,284,76.1Zm-3.16,4.12h6.31a3.19,3.19,0,0,0-3.17-3.31A3.27,3.27,0,0,0,280.8,80.22Z" transform="translate(-14.02 -14.17)"/><path class="cls-1" d="M296.32,85V79.12c0-1.67-.84-2.17-2.1-2.17a3.73,3.73,0,0,0-2.82,1.49V85h-.93V76.32h.93v1.31a4.42,4.42,0,0,1,3.13-1.53c1.76,0,2.73.87,2.73,2.82V85Z" transform="translate(-14.02 -14.17)"/><path class="cls-1" d="M120.4,103V91H128v.93h-6.57v4.44h6.45v.93h-6.45V103Z" transform="translate(-14.02 -14.17)"/><path class="cls-1" d="M135.61,103v-1a3.78,3.78,0,0,1-3,1.23,2.88,2.88,0,1,1,0-5.76,3.76,3.76,0,0,1,3,1.24V96.89a2.06,2.06,0,0,0-2.33-2,3.38,3.38,0,0,0-2.72,1.27l-.52-.65a4.22,4.22,0,0,1,3.34-1.45c1.76,0,3.16.84,3.16,2.78V103Zm0-3.61a3.25,3.25,0,0,0-2.62-1.2,2.16,2.16,0,1,0,0,4.29,3.24,3.24,0,0,0,2.62-1.19Z" transform="translate(-14.02 -14.17)"/><path class="cls-1" d="M143.17,94.07a3.57,3.57,0,0,1,3.07,1.47l-.64.58a2.73,2.73,0,0,0-2.37-1.21c-2,0-3.27,1.62-3.27,3.7s1.24,3.72,3.27,3.72a2.77,2.77,0,0,0,2.37-1.22l.64.57a3.54,3.54,0,0,1-3.07,1.49,4.56,4.56,0,0,1,0-9.1Z" transform="translate(-14.02 -14.17)"/><path class="cls-1" d="M154.19,103V97.05c0-1.67-.85-2.14-2.11-2.14a3.73,3.73,0,0,0-2.82,1.49V103h-.93V91h.93V95.6a4.39,4.39,0,0,1,3.13-1.53c1.76,0,2.73.83,2.73,2.78V103Z" transform="translate(-14.02 -14.17)"/><path class="cls-1" d="M163.89,103v-1.28a4.41,4.41,0,0,1-3.13,1.49c-1.78,0-2.73-.82-2.73-2.78v-6.1H159v5.89c0,1.68.84,2.15,2.1,2.15a3.74,3.74,0,0,0,2.82-1.44v-6.6h.93V103Zm-5-10.88a.67.67,0,1,1,.66.68A.68.68,0,0,1,158.93,92.08Zm3.66,0a.68.68,0,0,1,.67-.67.68.68,0,1,1-.67.67Z" transform="translate(-14.02 -14.17)"/><path class="cls-1" d="M167.73,103V91h.94v4.71a3.69,3.69,0,0,1,3-1.62c2.32,0,3.88,1.81,3.88,4.56s-1.58,4.54-3.88,4.54a3.7,3.7,0,0,1-3-1.59V103Zm.94-2.17a3.51,3.51,0,0,0,2.85,1.54c1.94,0,3-1.6,3-3.7s-1.1-3.72-3-3.72a3.54,3.54,0,0,0-2.85,1.58Z" transform="translate(-14.02 -14.17)"/><path class="cls-1" d="M181.67,94.07c2.64,0,4.1,2.1,4.1,4.6v.25h-7.26a3.39,3.39,0,0,0,3.4,3.45,3.8,3.8,0,0,0,2.83-1.21l.49.61a4.47,4.47,0,0,1-3.4,1.4,4.56,4.56,0,0,1-.16-9.1Zm-3.16,4.11h6.31a3.18,3.18,0,0,0-3.17-3.3A3.26,3.26,0,0,0,178.51,98.18Z" transform="translate(-14.02 -14.17)"/><path class="cls-1" d="M188.18,103V94.29h.93v1.49A3.73,3.73,0,0,1,192,94.11v1a1.79,1.79,0,0,0-.47,0,3.3,3.3,0,0,0-2.46,1.55V103Z" transform="translate(-14.02 -14.17)"/><path class="cls-1" d="M193.67,101.11a3.62,3.62,0,0,0,2.81,1.27c1.45,0,2.31-.71,2.31-1.72s-1.18-1.44-2.42-1.76c-1.46-.36-3.05-.74-3.05-2.42,0-1.33,1.13-2.41,3.08-2.41a4,4,0,0,1,3.11,1.27L199,96a3.17,3.17,0,0,0-2.59-1.15c-1.34,0-2.17.66-2.17,1.56s1.11,1.26,2.32,1.56c1.49.38,3.16.79,3.16,2.64,0,1.41-1.08,2.55-3.25,2.55a4.2,4.2,0,0,1-3.34-1.36Z" transform="translate(-14.02 -14.17)"/><path class="cls-1" d="M205.8,94.07c2.64,0,4.09,2.1,4.09,4.6v.25h-7.25a3.39,3.39,0,0,0,3.39,3.45,3.82,3.82,0,0,0,2.84-1.21l.49.61a4.49,4.49,0,0,1-3.4,1.4,4.56,4.56,0,0,1-.16-9.1Zm-3.16,4.11h6.3a3.18,3.18,0,0,0-3.16-3.3A3.25,3.25,0,0,0,202.64,98.18Z" transform="translate(-14.02 -14.17)"/><path class="cls-1" d="M212.48,101.29V95.11h-1.43v-.82h1.43V91.91h1v2.38h1.76v.82h-1.76v6c0,.7.29,1.18.9,1.18a1.35,1.35,0,0,0,1-.41l.36.72a2,2,0,0,1-1.47.53C213,103.17,212.48,102.47,212.48,101.29Z" transform="translate(-14.02 -14.17)"/><path class="cls-1" d="M216.79,103v-.77l5.14-7.08h-5.14v-.82h6.34V95l-5.19,7.09h5.27V103Z" transform="translate(-14.02 -14.17)"/><path class="cls-1" d="M229.35,94.07c2.64,0,4.09,2.1,4.09,4.6v.25h-7.25a3.39,3.39,0,0,0,3.39,3.45,3.81,3.81,0,0,0,2.84-1.21l.49.61a4.49,4.49,0,0,1-3.4,1.4,4.56,4.56,0,0,1-.16-9.1Zm-3.16,4.11h6.3a3.17,3.17,0,0,0-3.16-3.3A3.25,3.25,0,0,0,226.19,98.18Z" transform="translate(-14.02 -14.17)"/><path class="cls-1" d="M241.71,103V97.09c0-1.67-.84-2.18-2.1-2.18a3.71,3.71,0,0,0-2.82,1.49V103h-.93V94.29h.93V95.6a4.38,4.38,0,0,1,3.12-1.53c1.76,0,2.73.86,2.73,2.82V103Z" transform="translate(-14.02 -14.17)"/><path class="cls-2" d="M106.27,60.3A46.13,46.13,0,1,0,30.68,95.78V62h0c0-.38,0-.76,0-1.14a29.44,29.44,0,1,1,19.5,27.73l-18.83,7.7a46.16,46.16,0,0,0,44.4,7.39l30.52,38V62.1h0C106.25,61.5,106.27,60.9,106.27,60.3Z" transform="translate(-14.02 -14.17)"/></svg>